<svg width="16" height="17" viewBox="0 0 16 17" fill="none" xmlns="http://www.w3.org/2000/svg">
<path d="M1 3.43975C1 3.03091 1.16389 2.6388 1.45561 2.34971C1.74733 2.0606 2.143 1.89819 2.55556 1.89819H5.10667C5.26984 1.89831 5.42884 1.94929 5.56117 2.04391C5.69349 2.13852 5.79244 2.27199 5.844 2.42541L7.00911 5.88851C7.06814 6.06452 7.06116 6.25571 6.98944 6.42702C6.91773 6.59833 6.78608 6.73826 6.61867 6.82116L4.86322 7.69214C5.72369 9.57941 7.24902 11.091 9.15344 11.9438L10.0323 10.2041C10.116 10.0382 10.2572 9.90773 10.4301 9.83663C10.6029 9.76561 10.7959 9.75869 10.9734 9.81716L14.468 10.9718C14.6229 11.023 14.7577 11.1211 14.8532 11.2524C14.9487 11.3837 15 11.5414 15 11.7033V14.2306C15 14.6395 14.8361 15.0316 14.5444 15.3207C14.2527 15.6098 13.857 15.7722 13.4444 15.7722H12.6667C6.22356 15.7722 1 10.5956 1 4.21053V3.43975Z" stroke="#F3A800" stroke-width="2" stroke-linecap="round" stroke-linejoin="round"/>
</svg>
