<svg width="13" height="14" fill="none" xmlns="http://www.w3.org/2000/svg"><path d="M.524 11.032h2.062v1.74a.28.28 0 00.082.208.289.289 0 00.212.082h1.537c.08 0 .149-.028.207-.082a.271.271 0 00.087-.208v-1.74H9.36a.28.28 0 00.295-.29v-1.16a.279.279 0 00-.084-.208.289.289 0 00-.211-.082H4.71V8.223h3.13c1.226 0 2.228-.368 3.004-1.105.776-.737 1.164-1.688 1.164-2.854 0-1.166-.388-2.117-1.164-2.854C10.069.673 9.067.304 7.84.304H2.88a.28.28 0 00-.295.29v5.7H.525a.281.281 0 00-.213.085.284.284 0 00-.083.204v1.35a.28.28 0 00.295.29h2.062v1.07H.524a.289.289 0 00-.212.081.28.28 0 00-.083.208v1.16a.28.28 0 00.295.29zm4.187-8.798h2.945c.65 0 1.175.188 1.574.562.398.375.598.864.598 1.468s-.2 1.093-.598 1.468c-.4.374-.924.562-1.574.562H4.711v-4.06z" fill="#EEC451"/></svg>